<svg width="20" height="20" viewBox="0 0 20 20" fill="none" xmlns="http://www.w3.org/2000/svg">
<path fill-rule="evenodd" clip-rule="evenodd" d="M1 2C1 1.44771 1.34314 1 3 1C4.10457 1 5 1.89543 5 3C5 3.55228 5.44772 4 6 4H16.4284L16.5074 3.99982C16.7761 3.99893 17.1018 3.99784 17.3868 4.08213C18.1504 4.308 18.7073 4.96537 18.8046 5.75575C18.8409 6.05073 18.7862 6.37185 18.7412 6.63676L18.728 6.71459L18.7067 6.84251C18.5533 7.76487 18.4481 8.3969 18.2207 8.93792C17.6021 10.4092 16.3183 11.4967 14.7653 11.8651C14.1942 12.0005 13.5535 12.0003 12.6185 12L10 12C9.16837 12 8.45529 12.5076 8.15367 13.2298C9.23789 13.6819 10 14.752 10 16C10 17.6569 8.65685 19 7 19C5.34315 19 4 17.6569 4 16C4 14.6945 4.83386 13.5838 5.99801 13.1714C5.96999 11.8392 5.64646 10.529 5.04985 9.33576L4 7.23607C3.34237 5.92081 3 4.4705 3 3C1.34314 3 1 2.55228 1 2ZM5.78885 6.34164C5.7286 6.22113 5.6717 6.09918 5.61819 5.97593C5.74322 5.99181 5.87065 6 6 6H16.4284C16.6168 6 16.7226 6.00027 16.7996 6.00398L16.8139 6.00474L16.8123 6.01897C16.8033 6.09557 16.7862 6.20001 16.7552 6.38579C16.572 7.48511 16.5018 7.8659 16.377 8.16275C16.0058 9.04552 15.2355 9.69805 14.3038 9.91903C13.9904 9.99334 13.6033 10 12.4888 10H10C9.13642 10 8.33676 10.2737 7.68301 10.739C7.48859 9.94673 7.20598 9.17589 6.8387 8.44133L5.78885 6.34164ZM7 17C6.44772 17 6 16.5523 6 16C6 15.4477 6.44772 15 7 15C7.55228 15 8 15.4477 8 16C8 16.5523 7.55228 17 7 17Z" fill="#676B7E"/>
<path fill-rule="evenodd" clip-rule="evenodd" d="M15 19C13.3431 19 12 17.6569 12 16C12 14.3431 13.3431 13 15 13C16.6569 13 18 14.3431 18 16C18 17.6569 16.6569 19 15 19ZM15 17C14.4477 17 14 16.5523 14 16C14 15.4477 14.4477 15 15 15C15.5523 15 16 15.4477 16 16C16 16.5523 15.5523 17 15 17Z" fill="#676B7E"/>
</svg>
