<svg width="49" height="45" viewBox="0 0 49 45" fill="none" xmlns="http://www.w3.org/2000/svg">
<path d="M22.78 7.05333C23.0195 7.30667 23.1667 7.65293 23.1667 8C23.1667 8.09307 23.1536 8.1732 23.1393 8.26627C23.1263 8.3464 23.1003 8.4264 23.0599 8.50653C23.0325 8.58667 22.9935 8.66667 22.9401 8.7468C22.8867 8.8132 22.8333 8.8796 22.78 8.94667C22.7136 9 22.6459 9.05347 22.5795 9.10613C22.5 9.15947 22.4193 9.19987 22.3399 9.22653C22.2592 9.26627 22.1797 9.29293 22.1003 9.30667C22.0065 9.3196 21.9128 9.33333 21.8333 9.33333C21.4869 9.33333 21.1393 9.18613 20.8867 8.94667C20.8333 8.8796 20.7669 8.8132 20.7265 8.7468C20.6732 8.66667 20.6328 8.58667 20.6068 8.50653C20.5664 8.4264 20.5404 8.3464 20.5261 8.26627C20.5131 8.1732 20.5 8.09307 20.5 8C20.5 7.65293 20.6459 7.30667 20.8867 7.05333C21.1927 6.74667 21.6601 6.6132 22.1003 6.69333C22.1797 6.7064 22.2591 6.73307 22.3399 6.7728C22.4193 6.79947 22.5 6.83987 22.5795 6.8932C22.6459 6.94667 22.7136 7 22.78 7.05333ZM24.3347 30.6204L17.8333 29.5371V28.8241L19.4869 27.9967C25.2943 27.8873 28.5 24.8073 28.5 22.6667V22.1145L26.3855 20H25.8333C16.5364 20 12.2383 20 2.81387 25.3333H0.5V28H3.5208L3.82813 27.8243C12.6705 22.7715 16.4975 22.6687 25.2812 22.6667L25.6328 23.0183C25.0183 23.8313 23 25.3333 19.1667 25.3333H18.8516L15.1667 27.1757V31.7961L24.6667 33.3795L25.0248 33.2252C33.8477 29.4433 37.306 28.4231 40.3503 30.0012L21.5989 41.2525L3.44667 37.3627L0.5 37.3333V40H3.026L22.0676 44.0807L43.1667 31.4219V28.6197L42.5729 28.2239C37.9088 25.1152 33.0755 26.8828 24.3347 30.6204ZM48.5 5.8424V10.1575L44.8151 12H42.6145L41.2812 10.6667H41.052L39.7187 12H37.2812L35.9479 10.6667H35.7187L34.3853 12H30.0843C28.6984 14.3872 26.1201 16 23.1667 16C18.7552 16 15.1667 12.4115 15.1667 8C15.1667 3.58853 18.7552 0 23.1667 0C26.1201 0 28.6985 1.6128 30.0843 4H44.8151L48.5 5.8424ZM28.5 8C28.5 5.0592 26.1081 2.66667 23.1667 2.66667C20.2252 2.66667 17.8333 5.0592 17.8333 8C17.8333 10.9408 20.2252 13.3333 23.1667 13.3333C26.1081 13.3333 28.5 10.9408 28.5 8ZM45.8333 7.49093L44.1849 6.66667H31.0463C31.1196 7.10133 31.1667 7.5448 31.1667 8C31.1667 8.4552 31.1196 8.89867 31.0463 9.33333H33.2813L34.6147 8H37.0521L38.3855 9.33333H38.6147L39.948 8H42.3855L43.7188 9.33333H44.1849L45.8333 8.50907V7.49093Z" fill="#676B7E"/>
</svg>
