<svg width="49" height="44" viewBox="0 0 49 44" fill="none" xmlns="http://www.w3.org/2000/svg">
<path d="M0.5 43.45H48.5V24.25H0.5V43.45ZM2.9 26.65H46.1V41.05H2.9V26.65ZM38.4898 28.1471L43.7 32.7057V34.9943L38.4898 39.5529L36.9102 37.747L39.9922 35.05H34.1V32.65H39.9922L36.9102 29.9529L38.4898 28.1471ZM42.5 2.65V0.25H40.1V2.65H8.9V0.25H6.5V2.65H0.5V21.85H48.5V2.65H42.5ZM46.1 19.45H2.9V5.05H46.1V19.45ZM35.0035 14.2404L33.1964 12.6596L37.7551 7.45H40.0449L44.6035 12.6596L42.7964 14.2404L40.1 11.1586V17.05H37.7V11.1586L35.0035 14.2404ZM22.1 11.05H6.5V8.65H22.1V11.05ZM17.3 15.85H6.5V13.45H17.3V15.85ZM6.5 30.25H22.1V32.65H6.5V30.25ZM6.5 35.05H17.3V37.45H6.5V35.05Z" fill="#676B7E"/>
</svg>
