<svg width="49" height="48" viewBox="0 0 49 48" fill="none" xmlns="http://www.w3.org/2000/svg">
<path d="M45.85 47.6125H48.25C48.25 34.1547 37.7078 23.6125 24.25 23.6125C10.7922 23.6125 0.25 34.1547 0.25 47.6125H2.65C2.65 45.5108 2.93956 43.5066 3.44956 41.6125H11.477C11.2032 43.4319 11.05 45.4265 11.05 47.6125H13.45C13.45 45.3945 13.6296 43.4153 13.9234 41.6125H23.05V47.6125H25.45V41.6125H34.6497C34.9572 43.4478 35.1321 45.4358 35.1203 47.6066L37.5203 47.6184C37.532 45.4602 37.3632 43.4715 37.0742 41.6125H45.0506C45.5604 43.5066 45.85 45.5108 45.85 47.6125ZM4.23352 39.2125C6.77836 32.8304 12.2146 28.1636 19.1135 26.6004C16.3854 28.9327 13.3816 32.8361 11.9312 39.2125H4.23352ZM14.4143 39.2125C16.2694 31.7649 20.396 28.2642 23.05 26.7399V39.2125H14.4143ZM25.45 39.2125V26.7357C29.0458 28.7795 32.5271 32.8268 34.158 39.2125H25.45ZM36.6105 39.2125C35.2578 33.4494 32.5322 29.292 29.412 26.6066C36.2987 28.1756 41.7249 32.8383 44.2665 39.2125H36.6105ZM7.45 7.51558V9.59854L7.675 9.91198C7.88764 10.2086 9.9262 12.8125 15.85 12.8125H18.5307L15.85 17.2802V20.0125H21.0941L29.4941 12.8125H32.65C37.791 12.8125 40.4588 10.856 40.5701 10.7723L41.05 10.4125V8.0125L40.5701 7.65274C40.4588 7.56898 37.791 5.6125 32.65 5.6125H29.3685L20.9687 0.8125H17.05V3.25414L19.1633 5.6125H15.1469L10.3469 0.8125H7.11304L8.521 6.44458L7.45 7.51558ZM20.2352 3.2125L24.485 5.6125H22.386L20.2352 3.2125ZM9.85 8.50942L11.1789 7.18054L10.4646 4.32466L14.1531 8.0125H32.65C35.6067 8.0125 37.5642 8.75254 38.4965 9.2131C37.5654 9.67366 35.6102 10.4125 32.65 10.4125H28.6059L20.2059 17.6125H18.4492L22.7693 10.4125H15.85C12.1638 10.4125 10.4236 9.23482 9.85 8.73382V8.50942Z" fill="#676B7E"/>
</svg>
