<svg width="48" height="46" viewBox="0 0 48 46" fill="none" xmlns="http://www.w3.org/2000/svg">
<path d="M35.3684 0C27.9313 0 22.7368 4.6752 22.7368 11.3684C22.7368 14.0113 23.8125 16.3137 24.9412 17.7835L21.6402 22.7368H25.2632L30.2171 21.5372C30.3491 21.5922 30.4749 21.6464 30.5971 21.6981C31.9602 22.2786 33.037 22.7368 35.3684 22.7368C42.8055 22.7368 48 18.0616 48 11.3684C48 4.6752 42.8055 0 35.3684 0ZM35.3684 20.2105C33.5526 20.2105 32.8545 19.9132 31.5875 19.3736C31.3408 19.2687 31.0794 19.1577 30.7919 19.0405L30.4095 18.8851L26.6102 19.835L28.1521 17.5233L27.4194 16.7912C26.3462 15.718 25.2632 13.6245 25.2632 11.3684C25.2632 5.26055 30.338 2.52632 35.3684 2.52632C40.3988 2.52632 45.4737 5.26055 45.4737 11.3684C45.4737 17.4763 40.3988 20.2105 35.3684 20.2105ZM38.8964 7.31747L40.6827 9.1037L34.6283 15.1579H32.8669L29.9606 11.5257L31.9343 9.948L33.8586 12.3547L38.8964 7.31747ZM25.2632 35.3832V45.5039H22.7368V35.3832C22.7368 33.0293 21.4007 31.4434 19.4505 30.4485L9.21095 42.9621H18.9474V45.4885H6.31579V42.5113L16.9237 29.5459C15.5595 29.2182 14.0821 29.0675 12.6316 29.0675C7.74669 29.0675 2.52632 30.7267 2.52632 35.3833V45.504H0V35.3833C0 30.0119 4.95764 26.5412 12.6316 26.5412C20.3055 26.5412 25.2632 30.0117 25.2632 35.3832ZM6.31579 17.699C6.31579 20.3203 7.63566 25.2779 12.6316 25.2779C17.6275 25.2779 18.9474 20.3203 18.9474 17.699V16.7332L21.8376 10.9355L20.9112 10.3175C20.7435 10.2058 16.7565 7.57895 12.6316 7.57895C8.50661 7.57895 4.51971 10.2058 4.35196 10.3175L3.42556 10.9355L6.31579 16.7332V17.699ZM12.6316 22.7516C9.64926 22.7516 9.01528 19.6354 8.88 18.2958C9.91352 18.6274 11.2611 18.9474 12.6316 18.9474C14.0035 18.9474 15.3527 18.6268 16.3866 18.2948C16.2585 19.634 15.6384 22.7516 12.6316 22.7516ZM9.62577 15.8822C11.7504 15.3562 13.5129 15.3562 15.6375 15.8822C14.7965 16.1547 13.7043 16.4211 12.6316 16.4211C11.5589 16.4211 10.4667 16.1547 9.62577 15.8822ZM12.6316 10.1053C14.9211 10.1053 17.2796 11.1765 18.5526 11.8618L17.5825 13.8082C13.9902 12.6867 11.2728 12.6867 7.68051 13.8082L6.70926 11.8599C7.97861 11.1748 10.3297 10.1053 12.6316 10.1053Z" fill="#676B7E"/>
</svg>
