<svg width="49" height="47" viewBox="0 0 49 47" fill="none" xmlns="http://www.w3.org/2000/svg">
<path d="M25.7632 35.8832V46.0039H23.2368V35.8832C23.2368 33.5293 21.9007 31.9434 19.9505 30.9485L9.71095 43.4621H19.4474V45.9885H6.81579V43.0113L17.4237 30.0459C16.0595 29.7182 14.5821 29.5675 13.1316 29.5675C8.24669 29.5675 3.02632 31.2267 3.02632 35.8833V46.004H0.5V35.8833C0.5 30.5119 5.45764 27.0412 13.1316 27.0412C20.8055 27.0412 25.7632 30.5117 25.7632 35.8832ZM6.81579 17.2332L3.92556 11.4355L4.85196 10.8175C5.01971 10.7058 9.00661 8.07895 13.1316 8.07895C17.2565 8.07895 21.2435 10.7058 21.4112 10.8175L22.3376 11.4355L19.4474 17.2332V18.199C19.4474 20.8203 18.1275 25.7779 13.1316 25.7779C8.13566 25.7779 6.81579 20.8203 6.81579 18.199V17.2332ZM16.8866 18.7948C15.8527 19.1268 14.5035 19.4474 13.1316 19.4474C11.7611 19.4474 10.4135 19.1274 9.38 18.7958C9.51528 20.1354 10.1493 23.2516 13.1316 23.2516C16.1384 23.2516 16.7585 20.134 16.8866 18.7948ZM13.1316 16.9211C14.2043 16.9211 15.2965 16.6547 16.1374 16.3822C14.0128 15.8562 12.2503 15.8562 10.1256 16.3822C10.9667 16.6547 12.0589 16.9211 13.1316 16.9211ZM7.20926 12.36L8.18051 14.3083C11.7728 13.1868 14.4902 13.1868 18.0825 14.3083L19.0526 12.3619C17.7796 11.6765 15.4211 10.6053 13.1316 10.6053C10.8297 10.6053 8.47861 11.6748 7.20926 12.36ZM48.5 11.8684C48.5 18.5616 43.3055 23.2368 35.8684 23.2368C33.537 23.2368 32.4602 22.7786 31.0971 22.1981C30.9749 22.1464 30.8491 22.092 30.7171 22.0372L25.7632 23.2368H22.1402L25.4412 18.2835C24.3125 16.8137 23.2368 14.5113 23.2368 11.8684C23.2368 5.1752 28.4313 0.5 35.8684 0.5C43.3055 0.5 48.5 5.1752 48.5 11.8684ZM45.9737 11.8684C45.9737 5.76055 40.8988 3.02632 35.8684 3.02632C30.838 3.02632 25.7632 5.76055 25.7632 11.8684C25.7632 14.1245 26.8462 16.218 27.9194 17.2912L28.6521 18.0233L27.1102 20.335L30.9095 19.3851L31.2919 19.5405C31.5792 19.6577 31.8408 19.7687 32.0875 19.8736C33.3545 20.4132 34.0526 20.7105 35.8684 20.7105C40.8988 20.7105 45.9737 17.9763 45.9737 11.8684ZM38.1333 7.81747L35.8684 10.0822L33.6036 7.81735L31.8175 9.60358L34.0822 11.8684L31.8173 14.1333L33.6036 15.9195L35.8684 13.6547L38.1333 15.9195L39.9195 14.1333L37.6547 11.8684L39.9195 9.60358L38.1333 7.81747Z" fill="#676B7E"/>
</svg>
