<?xml version="1.0" encoding="UTF-8"?><svg id="Layer_1" xmlns="http://www.w3.org/2000/svg" viewBox="0 0 220.02 98.12"><defs><style>.cls-1{fill:#f7f7f7;}.cls-2{fill:#a52f4c;}</style></defs><g><path class="cls-1" d="M99.15,19.45v57.24h-12.08V19.45h-15.05V7.37h42.19v12.08h-15.05Z"/><path class="cls-1" d="M139.81,22.42v12.08c-8.25,0-15.05,6.63-15.05,14.97v27.22h-12.08v-27.22c0-14.97,12.16-27.05,27.13-27.05Z"/><path class="cls-1" d="M157.85,76.69h-12.08V22.42h12.08v54.26Z"/><path class="cls-1" d="M192.89,22.42c14.97,0,27.13,12.16,27.13,27.13s-12.16,27.13-27.13,27.13c-3.83,0-7.57-.77-10.89-2.21v-14.46c2.81,2.89,6.63,4.59,10.89,4.59,8.34,0,15.05-6.72,15.05-15.05s-6.72-15.05-15.05-15.05-15.05,6.72-15.05,15.05v48.56h-12.08V49.56c0-14.97,12.16-27.13,27.13-27.13Z"/></g><path class="cls-2" d="M161.21,9.41c0,5.17-4.24,9.41-9.41,9.41s-9.41-4.24-9.41-9.41,4.24-9.41,9.41-9.41,9.41,4.24,9.41,9.41Z"/><path class="cls-1" d="M0,76.69v-12.08c8.25,0,15.05-6.72,15.05-15.05,.05-11.87,.11-23.74,.16-35.6,3.97-2.19,7.94-4.39,11.92-6.58V49.56c0,14.97-12.16,27.13-27.13,27.13Z"/><path class="cls-1" d="M37.14,41.95h32.23v9.1H37.14v-9.1Z"/></svg>