<svg width="49" height="49" viewBox="0 0 49 49" fill="none" xmlns="http://www.w3.org/2000/svg">
<path d="M11.4629 43.5417L11.8619 42.9877C12.1758 42.5521 19.5417 32.2533 19.5417 26.2083C19.5417 20.6257 15.791 16.875 10.2083 16.875C4.62567 16.875 0.875 20.6257 0.875 26.2083C0.875 32.2533 8.24087 42.5521 8.55473 42.9877L8.9538 43.5417H11.4629ZM3.54167 26.2083C3.54167 22.1582 6.1582 19.5417 10.2083 19.5417C14.2585 19.5417 16.875 22.1582 16.875 26.2083C16.875 30.1835 12.457 37.4317 10.2083 40.7025C7.95967 37.4317 3.54167 30.1835 3.54167 26.2083ZM38.2871 27.5417H40.7962L41.1953 26.9877C41.5091 26.5521 48.875 16.2533 48.875 10.2083C48.875 4.62567 45.1243 0.875 39.5417 0.875C33.959 0.875 30.2083 4.62567 30.2083 10.2083C30.2083 16.2533 37.5742 26.5521 37.8881 26.9877L38.2871 27.5417ZM39.5417 3.54167C43.5918 3.54167 46.2083 6.1582 46.2083 10.2083C46.2083 14.1835 41.7903 21.4317 39.5417 24.7025C37.293 21.4317 32.875 14.1835 32.875 10.2083C32.875 6.1582 35.4915 3.54167 39.5417 3.54167ZM43.2083 43.5417C43.2083 46.1921 41.0333 48.875 36.875 48.875H8.875V46.2083H36.875C39.4082 46.2083 40.5417 44.8691 40.5417 43.5417C40.5417 42.2142 39.4082 40.875 36.875 40.875H28.875C24.7167 40.875 22.5417 38.1921 22.5417 35.5417C22.5417 32.8913 24.7167 30.2083 28.875 30.2083H40.875V32.875H28.875C26.3418 32.875 25.2083 34.2142 25.2083 35.5417C25.2083 36.8691 26.3418 38.2083 28.875 38.2083H36.875C41.0333 38.2083 43.2083 40.8913 43.2083 43.5417ZM39.5417 11.5417C39.3678 11.5417 39.1946 11.5013 39.0345 11.4349C38.8613 11.3678 38.7278 11.2747 38.595 11.1549C38.5417 11.0878 38.4746 11.0214 38.4349 10.955C38.3815 10.8749 38.3411 10.7949 38.3145 10.7147C38.2747 10.6346 38.2481 10.5546 38.235 10.4745C38.2214 10.3815 38.2083 10.3014 38.2083 10.2083C38.2083 9.86127 38.3549 9.515 38.595 9.26167C38.7278 9.14127 38.8613 9.04807 39.0345 8.98113C39.5279 8.7682 40.1146 8.88807 40.4882 9.26167C40.5415 9.32807 40.6079 9.39447 40.6477 9.46153C40.701 9.54167 40.7414 9.62167 40.7681 9.70113C40.8078 9.78127 40.8345 9.86127 40.8482 9.9414C40.8613 10.0345 40.875 10.1282 40.875 10.2083C40.875 10.3014 40.8613 10.3815 40.8483 10.4746C40.8346 10.5547 40.8079 10.6347 40.7682 10.7149C40.7415 10.795 40.7011 10.875 40.6478 10.9551C40.6081 11.0215 40.5417 11.0879 40.4883 11.155C40.235 11.3945 39.8881 11.5417 39.5417 11.5417ZM10.2083 27.5417C9.86127 27.5417 9.515 27.3945 9.26167 27.155C9.02153 26.9017 8.875 26.5547 8.875 26.2083C8.875 25.8613 9.02153 25.515 9.26167 25.2617C9.63473 24.9017 10.2213 24.7682 10.7147 24.9811C10.8879 25.0482 11.0214 25.1413 11.1549 25.2617C11.2746 25.3945 11.3678 25.5417 11.4349 25.7011C11.5013 25.8613 11.5417 26.0345 11.5417 26.2083C11.5417 26.5547 11.3945 26.9017 11.155 27.155C10.9017 27.3945 10.5547 27.5417 10.2083 27.5417Z" fill="#676B7E"/>
</svg>
