<svg width="20" height="20" viewBox="0 0 20 20" fill="none" xmlns="http://www.w3.org/2000/svg">
<path fill-rule="evenodd" clip-rule="evenodd" d="M1.01732 6C1.01732 6 1.0037 6.16614 1.01098 6.24824C1 6.76331 1 7.34357 1 8V12C1 14.8284 1 16.2426 1.87868 17.1213C2.75736 18 4.17157 18 7 18H13C15.8284 18 17.2426 18 18.1213 17.1213C19 16.2426 19 14.8284 19 12V8C19 7.34357 19 6.76331 18.989 6.24824C18.9963 6.16614 18.9827 6 18.9827 6C18.9359 4.44655 18.7626 3.51998 18.1213 2.87868C17.2426 2 15.8284 2 13 2H7C4.17157 2 2.75736 2 1.87868 2.87868C1.23738 3.51998 1.06413 4.44655 1.01732 6ZM7 4H13C14.4708 4 15.3726 4.00425 16.0253 4.092C16.599 4.16913 16.6948 4.27883 16.7062 4.29185L16.7071 4.29289L16.7082 4.29383C16.7212 4.3052 16.8309 4.40098 16.908 4.97468C16.9509 5.29398 16.9739 5.67291 16.9861 6.1489C16.945 6.36744 16.8144 6.56178 16.622 6.682L12.65 9.16451C11.8592 9.65873 11.3301 9.98797 10.8935 10.2015C10.4778 10.4047 10.2242 10.4623 10 10.4623C9.7758 10.4623 9.52216 10.4047 9.10653 10.2015C8.66991 9.98797 8.14077 9.65873 7.35001 9.16451L3.378 6.682C3.18564 6.56178 3.05505 6.36744 3.01389 6.1489C3.02613 5.67291 3.04907 5.29398 3.092 4.97468C3.16913 4.40099 3.27883 4.3052 3.29185 4.29383L3.29289 4.29289L3.29383 4.29185C3.3052 4.27883 3.40099 4.16913 3.97468 4.092C4.62738 4.00425 5.52925 4 7 4ZM17 8.80425V12C17 13.4708 16.9958 14.3726 16.908 15.0253C16.8309 15.599 16.7212 15.6948 16.7082 15.7062L16.7071 15.7071L16.7062 15.7082C16.6948 15.7212 16.599 15.8309 16.0253 15.908C15.3726 15.9958 14.4708 16 13 16H7C5.52925 16 4.62738 15.9958 3.97468 15.908C3.40098 15.8309 3.3052 15.7212 3.29383 15.7082L3.29289 15.7071L3.29185 15.7062C3.27883 15.6948 3.16913 15.599 3.092 15.0253C3.00425 14.3726 3 13.4708 3 12V8.80425L6.33294 10.8873C7.06958 11.3478 7.68679 11.7335 8.22799 11.9982C8.80066 12.2782 9.36381 12.4623 10 12.4623C10.6362 12.4623 11.1993 12.2782 11.772 11.9982C12.3132 11.7335 12.9304 11.3478 13.6671 10.8873L17 8.80425Z" fill="#676B7E"/>
</svg>
