<svg width="20" height="20" viewBox="0 0 20 20" fill="none" xmlns="http://www.w3.org/2000/svg">
<path fill-rule="evenodd" clip-rule="evenodd" d="M13 9C13 10.6569 11.6569 12 10 12C8.34315 12 7 10.6569 7 9C7 7.34315 8.34315 6 10 6C11.6569 6 13 7.34315 13 9ZM11 9C11 9.55228 10.5523 10 10 10C9.44772 10 9 9.55228 9 9C9 8.44772 9.44772 8 10 8C10.5523 8 11 8.44772 11 9Z" fill="#676B7E"/>
<path fill-rule="evenodd" clip-rule="evenodd" d="M10.3285 18.9463C10.1154 19.0179 9.8846 19.0179 9.67154 18.9463C9.49002 18.8854 9.3246 18.7483 8.99375 18.4742L4.87853 15.0645C1.10051 11.9343 1.03089 6.18787 4.73197 2.96802C7.74817 0.343993 12.2518 0.343993 15.268 2.96802C18.9691 6.18787 18.8995 11.9343 15.1215 15.0645L11.0062 18.4742C10.6754 18.7483 10.51 18.8854 10.3285 18.9463ZM6.15454 13.5245L10 16.7106L13.8455 13.5245C16.6735 11.1813 16.7251 6.88657 13.9553 4.47692C11.6918 2.50769 8.30823 2.50769 6.04468 4.47692C3.27489 6.88657 3.32654 11.1813 6.15454 13.5245Z" fill="#676B7E"/>
</svg>
