<svg width="49" height="52" viewBox="0 0 49 52" fill="none" xmlns="http://www.w3.org/2000/svg">
<path d="M29.7083 39.4664C29.7083 39.6396 29.6679 39.8128 29.6015 39.973C29.5351 40.1331 29.4414 40.2796 29.3215 40.4131C29.2551 40.4664 29.1874 40.5328 29.1079 40.5726C29.0415 40.6259 28.9607 40.6663 28.8814 40.6929C28.8007 40.7327 28.7213 40.7593 28.6275 40.7731C28.5482 40.786 28.4545 40.7997 28.375 40.7997C28.0143 40.7997 27.681 40.6525 27.4283 40.4131C27.3086 40.2796 27.2147 40.1331 27.1483 39.973C27.0819 39.8128 27.0417 39.6396 27.0417 39.4664C27.0417 39.3727 27.0547 39.2926 27.0677 39.1995C27.0819 39.1194 27.1081 39.0393 27.1483 38.9592C27.1743 38.8797 27.2147 38.7997 27.2681 38.7196C27.3085 38.6525 27.3749 38.5862 27.4282 38.5198C27.7342 38.2131 28.2017 38.066 28.6274 38.1597C28.7211 38.1728 28.8006 38.1995 28.8813 38.2392C28.9607 38.2659 29.0414 38.3063 29.1078 38.3596C29.1873 38.4129 29.255 38.4664 29.3214 38.5198C29.5611 38.7731 29.7083 39.1193 29.7083 39.4664ZM48.375 20.1708V23.4664H0.375V20.1708L24.375 0.405884L33.7083 8.09228V4.79975H32.375V2.13308H41.7083V4.79975H40.375V13.5825L48.375 20.1708ZM36.375 10.2884L37.7083 11.3864V4.79975H36.375V10.2884ZM44.9441 20.7997L24.375 3.86028L3.80593 20.7997H44.9441ZM45.7083 48.7997H48.375V51.4664H0.375V48.7997H3.04167V24.7997H5.70833V27.4664H8.375V30.1331H5.70833V32.7997H8.375V35.4664H5.70833V38.1331H8.375V40.7997H5.70833V43.4664H20.375V46.1331H5.70833V48.7997H23.0417V27.4664H37.7083V48.7997H43.0417V46.1331H40.375V43.4664H43.0417V40.7997H40.375V38.1331H43.0417V35.4664H40.375V32.7997H43.0417V30.1331H40.375V27.4664H43.0417V24.7997H45.7083V48.7997ZM25.7083 48.7997H35.0417V30.1331H25.7083V48.7997ZM20.375 40.7997H11.0417V27.4664H20.375V40.7997ZM17.7083 30.1331H13.7083V38.1331H17.7083V30.1331Z" fill="#676B7E"/>
</svg>
