<svg width="16" height="18" viewBox="0 0 16 18" fill="none" xmlns="http://www.w3.org/2000/svg">
<path fill-rule="evenodd" clip-rule="evenodd" d="M4.61422 2.35352C4.26089 2.56634 3.89395 2.75245 3.51613 2.91045C2.99517 3.12832 2.44787 3.27412 1.35327 3.56572L1.05048 3.64638C0.943497 3.67488 0.890005 3.68913 0.842615 3.70755C0.537274 3.8262 0.308738 4.10102 0.234939 4.4383C0.223485 4.49065 0.216645 4.54895 0.202967 4.66555C0.0787849 5.72416 0.0166937 6.25347 0.00374481 6.74854C-0.0794308 9.92857 1.22678 12.9697 3.53974 14.9812C3.89983 15.2943 4.31635 15.5902 5.14939 16.182L7.15648 17.6078C7.45476 17.8197 7.6039 17.9257 7.76455 17.9688C7.9191 18.0104 8.0809 18.0104 8.23545 17.9688C8.3961 17.9257 8.54524 17.8197 8.84354 17.6078L10.8506 16.182C11.6837 15.5902 12.1002 15.2943 12.4603 14.9812C14.7732 12.9697 16.0794 9.92857 15.9963 6.74854C15.9833 6.25347 15.9212 5.72416 15.797 4.66555C15.7834 4.54895 15.7765 4.49065 15.7651 4.4383C15.6913 4.10102 15.4627 3.8262 15.1574 3.70755C15.11 3.68913 15.0565 3.67488 14.9495 3.64638L14.6467 3.56572C13.5521 3.27412 13.0048 3.12832 12.4839 2.91045C12.106 2.75245 11.7391 2.56634 11.3858 2.35352C10.8986 2.06006 10.4473 1.69938 9.54463 0.978008L9.12479 0.642477C8.59844 0.221826 8.33526 0.0115 8.03255 0.000586572C8.01086 -0.000195524 7.98914 -0.000195524 7.96745 0.000586572C7.66474 0.0115 7.40156 0.221825 6.87521 0.642477L6.45537 0.978008C5.55274 1.69938 5.10143 2.06006 4.61422 2.35352ZM8 2.3038L7.70398 2.54037C7.6705 2.56713 7.63746 2.59354 7.60484 2.61962C6.79704 3.26539 6.24837 3.704 5.64615 4.06674C5.20999 4.32946 4.7561 4.55974 4.28778 4.7556C3.67027 5.01384 3.03196 5.18824 2.12747 5.42925C2.04476 6.1463 2.01127 6.48699 2.00306 6.80083C1.93482 9.40995 3.00906 11.8692 4.85217 13.472C5.12053 13.7054 5.44096 13.9359 6.30765 14.5515L8 15.7538L9.69235 14.5515C10.559 13.9359 10.8795 13.7054 11.1478 13.472C12.9909 11.8692 14.0652 9.40995 13.9969 6.80084C13.9887 6.48699 13.9552 6.14629 13.8725 5.42925C12.968 5.18824 12.3297 5.01384 11.7122 4.7556C11.2439 4.55974 10.79 4.32946 10.3539 4.06674C9.75163 3.704 9.20297 3.26539 8.39517 2.61962C8.36255 2.59354 8.3295 2.56713 8.29602 2.54037L8 2.3038Z" fill="#676B7E"/>
</svg>
