<svg width="20" height="20" viewBox="0 0 20 20" fill="none" xmlns="http://www.w3.org/2000/svg">
<path fill-rule="evenodd" clip-rule="evenodd" d="M16.7765 1.10223C15.1761 0.673409 13.531 1.62316 13.1022 3.22356L12.7423 4.56695L7.95409 7.30305C7.22264 6.50232 6.16998 6 5 6C2.79086 6 1 7.79086 1 10C1 12.2091 2.79086 14 5 14C6.16998 14 7.22264 13.4977 7.95409 12.697L12.7423 15.4331L13.1022 16.7764C13.531 18.3768 15.1761 19.3266 16.7765 18.8978C18.3769 18.4689 19.3266 16.8239 18.8978 15.2235C18.469 13.6231 16.8239 12.6734 15.2235 13.1022L13.5018 13.5636L8.89153 10.9291C8.96245 10.631 9 10.3199 9 10C9 9.68013 8.96245 9.36903 8.89153 9.07087L13.5018 6.43644L15.2235 6.89779C16.8239 7.32661 18.469 6.37687 18.8978 4.77647C19.3266 3.17607 18.3769 1.53106 16.7765 1.10223ZM14.7753 4.70712L15.7412 4.96594C16.2746 5.10888 16.823 4.7923 16.9659 4.25883C17.1089 3.72537 16.7923 3.17703 16.2588 3.03409C15.7254 2.89114 15.177 3.20773 15.0341 3.74119L14.7753 4.70712ZM3 10C3 11.1046 3.89543 12 5 12C6.10457 12 7 11.1046 7 10C7 8.89543 6.10457 8 5 8C3.89543 8 3 8.89543 3 10ZM15.7412 15.0341L14.7753 15.2929L15.0341 16.2588C15.177 16.7923 15.7254 17.1089 16.2588 16.9659C16.7923 16.823 17.1089 16.2746 16.9659 15.7412C16.823 15.2077 16.2746 14.8911 15.7412 15.0341Z" fill="#676B7E"/>
</svg>
