<svg width="20" height="20" viewBox="0 0 20 20" fill="none" xmlns="http://www.w3.org/2000/svg">
<path fill-rule="evenodd" clip-rule="evenodd" d="M4.33242 7.02562C5.14882 4.68186 7.378 3 10 3C12.622 3 14.8512 4.68186 15.6676 7.02562C15.2117 7 14.6644 7 14 7C13.0572 7 12.5858 7 12.2929 7.29289C12 7.58579 12 8.05719 12 9V13C12 13.9428 12 14.4142 12.2929 14.7071C12.5858 15 13.0572 15 14 15C14.7935 15 15.42 15 15.9232 14.9563C15.9159 15.0258 15.9079 15.0932 15.8991 15.1586C15.8042 15.8646 15.6368 16.1916 15.4142 16.4142C15.1916 16.6368 14.8646 16.8042 14.1586 16.8991C13.4237 16.9979 12.4425 17 11 17H9.6C8.27452 17 8 17.4477 8 18C8 18.5523 8.27452 19 9.6 19L11.0706 19C12.4247 19 13.5413 19.0001 14.4251 18.8812C15.3529 18.7565 16.1723 18.4845 16.8284 17.8284C17.4845 17.1723 17.7565 16.3529 17.8812 15.4251C18.0001 14.5413 18 13.4247 18 12.0706L18 9C18 4.58172 14.4183 1 10 1C5.58172 1 2 4.58172 2 9V12H2.00435C2.02228 13.2398 2.11424 13.9427 2.58579 14.4142C3.17157 15 4.11438 15 6 15C6.94281 15 7.41421 15 7.70711 14.7071C8 14.4142 8 13.9428 8 13V9C8 8.05719 8 7.58579 7.70711 7.29289C7.41421 7 6.94281 7 6 7C5.33565 7 4.78833 7 4.33242 7.02562ZM4 11C4 11.9993 4.00425 12.5477 4.05539 12.928L4.05739 12.9426L4.07195 12.9446C4.45234 12.9958 5.00065 13 6 13V9C5.00065 9 4.45234 9.00425 4.07195 9.05539L4.05739 9.05739L4.05539 9.07195C4.00425 9.45234 4 10.0007 4 11ZM16 11C16 10.0007 15.9958 9.45234 15.9446 9.07195L15.9426 9.05739L15.928 9.05539C15.5477 9.00425 14.9993 9 14 9V13C14.9993 13 15.5477 12.9958 15.928 12.9446L15.9426 12.9426L15.9446 12.928C15.9958 12.5477 16 11.9993 16 11Z" fill="#676B7E"/>
</svg>
