<svg width="49" height="49" viewBox="0 0 49 49" fill="none" xmlns="http://www.w3.org/2000/svg">
<path d="M8.5 13.8333C11.2911 13.8333 13.1667 11.9577 13.1667 9.16667C13.1667 6.3756 11.2911 4.5 8.5 4.5C5.70893 4.5 3.83333 6.3756 3.83333 9.16667C3.83333 11.9577 5.70893 13.8333 8.5 13.8333ZM8.5 7.16667C9.41213 7.16667 10.5 7.51373 10.5 9.16667C10.5 10.8196 9.41213 11.1667 8.5 11.1667C7.58787 11.1667 6.5 10.8196 6.5 9.16667C6.5 7.51373 7.58787 7.16667 8.5 7.16667ZM3.16667 43.1667H13.8333V31.1667H16.5V21.8333C16.5 17.7213 13.4349 15.1667 8.5 15.1667C3.56507 15.1667 0.5 17.7213 0.5 21.8333V31.1667H3.16667V43.1667ZM3.16667 21.8333C3.16667 18.5273 6.06707 17.8333 8.5 17.8333C10.9329 17.8333 13.8333 18.5273 13.8333 21.8333V28.5H11.1667V40.5H5.83333V28.5H3.16667V21.8333ZM37.9121 27.1667H40.4212L40.8203 26.6127C41.1341 26.1771 48.5 15.8783 48.5 9.83333C48.5 4.25067 44.7493 0.5 39.1667 0.5C33.584 0.5 29.8333 4.25067 29.8333 9.83333C29.8333 15.8783 37.1992 26.1771 37.5131 26.6127L37.9121 27.1667ZM39.1667 3.16667C43.2168 3.16667 45.8333 5.7832 45.8333 9.83333C45.8333 13.8085 41.4153 21.0567 39.1667 24.3275C36.918 21.0567 32.5 13.8085 32.5 9.83333C32.5 5.7832 35.1165 3.16667 39.1667 3.16667ZM42.8333 43.1667C42.8333 45.8171 40.6583 48.5 36.5 48.5H3.16667V45.8333H36.5C39.0332 45.8333 40.1667 44.4941 40.1667 43.1667C40.1667 41.8392 39.0332 40.5 36.5 40.5H28.5C24.3417 40.5 22.1667 37.8171 22.1667 35.1667C22.1667 32.5163 24.3417 29.8333 28.5 29.8333H40.5V32.5H28.5C25.9668 32.5 24.8333 33.8392 24.8333 35.1667C24.8333 36.4941 25.9668 37.8333 28.5 37.8333H36.5C40.6583 37.8333 42.8333 40.5163 42.8333 43.1667ZM39.1667 11.1667C38.8196 11.1667 38.4733 11.0195 38.22 10.78C38.1667 10.7129 38.1132 10.6465 38.0599 10.5801C38.0065 10.5 37.9661 10.42 37.9395 10.3399C37.8997 10.2597 37.8731 10.1797 37.86 10.0996C37.8464 10.0065 37.8333 9.9264 37.8333 9.83333C37.8333 9.48627 37.9799 9.14 38.22 8.88667C38.7128 8.3932 39.6061 8.3932 40.1132 8.88667C40.3528 9.14 40.5 9.48627 40.5 9.83333C40.5 9.9264 40.4863 10.0065 40.4733 10.0996C40.4596 10.1797 40.4329 10.2597 40.3932 10.3399C40.3665 10.42 40.3261 10.5 40.2728 10.5801C40.22 10.6465 40.1667 10.7129 40.1133 10.78C40.0463 10.8333 39.9799 10.8868 39.8997 10.9395C39.8333 10.9928 39.7532 11.0332 39.6732 11.0599C39.5931 11.0996 39.5131 11.1263 39.4329 11.14C39.3399 11.1529 39.2597 11.1667 39.1667 11.1667Z" fill="#676B7E"/>
</svg>
