<svg width="18" height="14" viewBox="0 0 18 14" fill="none" xmlns="http://www.w3.org/2000/svg">
<path fill-rule="evenodd" clip-rule="evenodd" d="M12 7C12 8.65685 10.6568 10 8.99998 10C7.34312 10 5.99998 8.65685 5.99998 7C5.99998 5.34315 7.34312 4 8.99998 4C10.6568 4 12 5.34315 12 7ZM9.99998 7C9.99998 7.55228 9.55226 8 8.99998 8C8.44769 8 7.99998 7.55228 7.99998 7C7.99998 6.44772 8.44769 6 8.99998 6C9.55226 6 9.99998 6.44772 9.99998 7Z" fill="white"/>
<path fill-rule="evenodd" clip-rule="evenodd" d="M0.282859 6.6759C0.330217 6.53767 0.423274 6.40739 0.609389 6.14683L2.67503 3.25493C4.13406 1.21228 6.48976 0 8.99998 0C11.5102 0 13.8659 1.21228 15.3249 3.25493L17.3906 6.14683C17.5767 6.40739 17.6697 6.53767 17.7171 6.6759C17.7891 6.88597 17.7891 7.11403 17.7171 7.3241C17.6697 7.46233 17.5767 7.59261 17.3906 7.85317L15.3249 10.7451C13.8659 12.7877 11.5102 14 8.99998 14C6.48976 14 4.13406 12.7877 2.67503 10.7451L0.609389 7.85317C0.423274 7.59261 0.330217 7.46233 0.282859 7.3241C0.210889 7.11403 0.210889 6.88597 0.282859 6.6759ZM13.6975 9.58259L15.5422 7L13.6975 4.41741C12.6139 2.90035 10.8643 2 8.99998 2C7.13566 2 5.38611 2.90035 4.30249 4.41741L2.45779 7L4.30249 9.58259C5.38611 11.0996 7.13566 12 8.99998 12C10.8643 12 12.6139 11.0996 13.6975 9.58259Z" fill="white"/>
</svg>
